<svg width="28" height="36" viewBox="0 0 28 36" fill="none" xmlns="http://www.w3.org/2000/svg">
<path fill-rule="evenodd" clip-rule="evenodd" d="M27.4213 26.0459L27.8463 28.0644C28.2489 29.8095 27.8513 31.6433 26.762 33.0649C25.6727 34.4865 24.0055 35.3474 22.2157 35.4125H5.78432C3.99453 35.3474 2.3273 34.4865 1.23798 33.0649C0.148658 31.6433 -0.248951 29.8095 0.153748 28.0644L0.578696 26.0459C1.06745 23.3134 3.41633 21.3054 6.19156 21.2475H21.8084C24.5837 21.3054 26.9325 23.3134 27.4213 26.0459ZM22.2157 32.7388C23.1148 32.7284 23.9609 32.3118 24.5175 31.6056V31.6233C25.2004 30.7667 25.4665 29.6505 25.2434 28.5779L24.8185 26.5594C24.5827 25.0635 23.3217 23.9434 21.8084 23.8857H6.19156C4.67832 23.9434 3.41728 25.0635 3.1815 26.5594L2.75655 28.5779C2.53904 29.6448 2.80483 30.7533 3.48251 31.6056C4.03907 32.3118 4.88521 32.7284 5.78431 32.7388H22.2157Z" fill="#2F586C"/>
<path fill-rule="evenodd" clip-rule="evenodd" d="M14.8851 17.7062H13.1145C9.20294 17.7062 6.03201 14.5353 6.03201 10.6237V5.94931C6.02729 4.37002 6.65257 2.85405 7.7693 1.73732C8.88603 0.620587 10.402 -0.00469484 11.9813 2.65446e-05H16.0183C17.5976 -0.00469484 19.1136 0.620587 20.2303 1.73732C21.347 2.85405 21.9723 4.37002 21.9676 5.94931V10.6237C21.9676 14.5353 18.7967 17.7062 14.8851 17.7062ZM11.9813 2.65598C10.1625 2.65598 8.68797 4.13047 8.68797 5.94934V10.6238C8.68797 13.0685 10.6698 15.0503 13.1145 15.0503H14.8851C17.3299 15.0503 19.3117 13.0685 19.3117 10.6238V5.94934C19.3117 5.07589 18.9647 4.23821 18.3471 3.62058C17.7295 3.00296 16.8918 2.65598 16.0183 2.65598H11.9813Z" fill="#2F586C"/>
</svg>
