<svg width="30" height="39" viewBox="0 0 30 39" fill="none" xmlns="http://www.w3.org/2000/svg">
<path fill-rule="evenodd" clip-rule="evenodd" d="M19.1366 2.77238e-06C20.6445 -0.002087 21.8896 1.1775 21.9689 2.68323C26.3943 3.1808 29.757 6.89499 29.8137 11.3478V30.1491C29.8034 35.0331 25.8467 38.9898 20.9627 39H8.85093C3.96695 38.9898 0.0102497 35.0331 0 30.1491V11.3478C0.0566694 6.89499 3.41941 3.1808 7.84472 2.68323C7.93318 1.18172 9.17292 0.0072301 10.677 2.77238e-06H19.1366ZM19.1739 2.68323H10.677V4.90062H19.1739V2.68323ZM27.0186 30.1491C27.0186 33.4967 24.3103 36.2133 20.9627 36.2236H8.85089C5.50329 36.2133 2.79497 33.4967 2.79499 30.1491V11.3478C2.80241 8.38299 4.95529 5.85946 7.88194 5.3851C8.11069 6.74787 9.29517 7.74284 10.677 7.73292H19.1366C20.5184 7.74284 21.7029 6.74787 21.9316 5.3851C24.8583 5.85946 27.0112 8.38299 27.0186 11.3478V30.1491ZM15.0002 16.6957H9.18649C8.41467 16.6957 7.78898 16.07 7.78898 15.2981C7.78898 14.5263 8.41467 13.9006 9.18649 13.9006H15.0002C15.772 13.9006 16.3977 14.5263 16.3977 15.2981C16.3977 16.07 15.772 16.6957 15.0002 16.6957ZM9.18653 19.6957H20.6275C21.3993 19.6957 22.025 20.3214 22.025 21.0932C22.025 21.865 21.3993 22.4907 20.6275 22.4907H9.18653C8.4147 22.4907 7.78901 21.865 7.78901 21.0932C7.78901 20.3214 8.4147 19.6957 9.18653 19.6957ZM19.0623 25.1553H9.18653C8.4147 25.1553 7.78901 25.781 7.78901 26.5528C7.78901 27.3246 8.4147 27.9503 9.18653 27.9503H19.0623C19.8341 27.9503 20.4598 27.3246 20.4598 26.5528C20.4598 25.781 19.8341 25.1553 19.0623 25.1553Z" fill="#2F586C"/>
</svg>
