<svg width="102" height="103" viewBox="0 0 102 103" fill="none" xmlns="http://www.w3.org/2000/svg">
<g clip-path="url(#clip0_25_14)">
<path d="M62.9387 19.6565L44.7015 49.9457L16.726 49.5186L16.8759 41.1869L9.31029 41.0445L9.00842 57.7057L44.5469 58.4806L58.0087 82.8177L50.7188 86.8463L54.3834 93.4697L68.9632 85.4126L51.8415 54.2488L66.1757 30.4386L73.3147 34.7407L77.2167 28.2607L62.9387 19.6565Z" fill="#41B4D3"/>
<path d="M61.5268 23.2164L45.1187 50.4719L19.9447 50.0862L20.0816 42.5908L13.2736 42.4606L13.0019 57.4536L44.9785 58.1503L57.0925 80.0481L50.5336 83.6733L53.8302 89.6331L66.9491 82.3837L51.5429 54.3421L64.4407 32.9174L70.8648 36.7898L74.3751 30.9591L61.5268 23.2164Z" fill="#88D2E2"/>
<path d="M60.0474 26.7389L45.4927 50.9164L23.1616 50.574L23.2832 43.9254L17.2443 43.811L17.0034 57.1102L45.3692 57.7277L56.1135 77.1527L50.2943 80.3683L53.22 85.6548L64.8574 79.2246L51.1904 54.3493L62.632 35.346L68.3297 38.7788L71.4449 33.6069L60.0474 26.7389Z" fill="#BAE5E7"/>
</g>
<defs>
<clipPath id="clip0_25_14">
<rect width="69.5475" height="73.341" fill="white" transform="translate(0.828857 49.2172) rotate(-43.938)"/>
</clipPath>
</defs>
</svg>
