<svg width="16" height="18" viewBox="0 0 16 18" fill="none" xmlns="http://www.w3.org/2000/svg">
<path fill-rule="evenodd" clip-rule="evenodd" d="M15.0963 4.9463C13.8824 1.95842 11.0382 0.00875733 7.88075 0.000112419C4.47776 -0.0182568 1.45189 2.21612 0.391111 5.53066C-0.669672 8.84519 0.476952 12.4827 3.22925 14.5343C5.98154 16.5858 9.71076 16.5828 12.4598 14.5267L14.9111 17.0394C15.1603 17.2946 15.5641 17.2946 15.8133 17.0394C16.0622 16.7839 16.0622 16.3701 15.8133 16.1146L13.4387 13.6804C15.6568 11.3769 16.3102 7.93419 15.0963 4.9463ZM13.9583 10.6171C12.9391 13.1348 10.5401 14.7745 7.88089 14.771V14.7361C4.27184 14.7314 1.34203 11.7437 1.31866 8.04425C1.31521 5.31843 2.91486 2.85921 5.37095 1.81445C7.82704 0.769695 10.6553 1.3454 12.5356 3.27284C14.4159 5.20029 14.9776 8.09944 13.9583 10.6171Z" fill="#05405C"/>
</svg>
