<svg width="40" height="40" viewBox="0 0 40 40" fill="none" xmlns="http://www.w3.org/2000/svg">
<path fill-rule="evenodd" clip-rule="evenodd" d="M38.4503 26.1373L39.9744 36.7257C40.0845 37.5409 39.8366 38.3639 39.2946 38.9828C38.7526 39.6017 37.9694 39.9559 37.1468 39.9543H36.7257L26.1373 38.4302C24.702 38.2324 23.3709 37.5703 22.3471 36.5452L2.81467 16.9927C-0.985246 13.0584 -0.930901 6.80453 2.93681 2.93681C6.80453 -0.930901 13.0584 -0.985246 16.9927 2.81467L36.5652 22.3471C37.5904 23.3709 38.2524 24.702 38.4503 26.1373ZM24.573 34.4195C25.1277 34.9521 25.8238 35.3141 26.5784 35.4623L37.0264 36.846L35.5625 26.4782C35.4144 25.7236 35.0524 25.0274 34.5197 24.4728L14.9673 4.94037C13.6498 3.58789 11.8419 2.82506 9.9538 2.82506C8.06573 2.82506 6.25776 3.58789 4.94035 4.94037C3.61897 6.25405 2.87598 8.04041 2.87598 9.90369C2.87598 11.767 3.61897 13.5533 4.94035 14.867L24.573 34.4195Z" fill="#2F586C"/>
<path d="M10.8966 8.77066C10.3039 8.21847 9.38047 8.23476 8.80771 8.80752C8.23495 9.38028 8.21866 10.3038 8.77086 10.8964L17.2135 19.339C17.8007 19.9255 18.752 19.9255 19.3392 19.339C19.9257 18.7518 19.9257 17.8005 19.3392 17.2133L10.8966 8.77066Z" fill="#2F586C"/>
</svg>
